<svg width="100%" height="100%" viewBox="0 0 300 100" version="1.1" xmlns="http://www.w3.org/2000/svg" xmlns:xlink="http://www.w3.org/1999/xlink" xml:space="preserve" xmlns:serif="http://www.serif.com/" style="fill-rule:evenodd;clip-rule:evenodd;stroke-linejoin:round;stroke-miterlimit:2;"><g><path d="M17.175,81.144c0.978,-0.317 1.888,-0.88 2.732,-1.686c0.843,-0.807 1.46,-1.821 1.851,-3.044c0.269,-0.831 0.465,-1.827 0.587,-2.988c0.122,-1.161 0.183,-2.793 0.183,-4.895l0,-16.83l-3.3,-0.513l0,-2.274l11.734,0l-0,2.274l-3.08,0.476l-0,14.41c-0,2.616 -0.031,4.639 -0.092,6.069c-0.061,1.43 -0.189,2.573 -0.385,3.428c-0.513,1.98 -1.564,3.624 -3.153,4.932c-1.589,1.308 -3.545,2.157 -5.867,2.548l-1.21,-1.907Z" style="fill-rule:nonzero;"/><path d="M45.005,76.561c-3.984,0 -6.967,-1.247 -8.947,-3.74c-1.98,-2.493 -2.97,-5.891 -2.97,-10.193c0,-2.811 0.52,-5.28 1.559,-7.407c1.039,-2.127 2.499,-3.764 4.381,-4.913c1.883,-1.149 4.046,-1.724 6.49,-1.724c4.034,0 7.059,1.192 9.075,3.575c2.017,2.384 3.025,5.714 3.025,9.992c0,2.836 -0.531,5.347 -1.595,7.535c-1.063,2.188 -2.548,3.881 -4.455,5.078c-1.906,1.198 -4.094,1.797 -6.563,1.797Zm0.367,-25.74c-2.005,0 -3.569,0.99 -4.694,2.97c-1.124,1.98 -1.686,4.913 -1.686,8.8c-0,3.838 0.544,6.753 1.631,8.745c1.088,1.992 2.646,2.988 4.675,2.988c1.98,0 3.533,-1.045 4.657,-3.135c1.124,-2.09 1.687,-5.102 1.687,-9.038c-0,-3.813 -0.538,-6.655 -1.614,-8.525c-1.075,-1.87 -2.627,-2.805 -4.656,-2.805Z" style="fill-rule:nonzero;"/><path d="M63.045,51.664l-2.713,-0.476l-0,-2.274l11.146,0l0,2.274l-3.08,0.476l0,9.204l11.147,-0l0,-9.204l-2.823,-0.476l-0,-2.274l11,0l-0,2.274l-2.787,0.476l0,21.927l2.787,0.367l-0,2.2l-11.037,-0l0,-2.2l2.86,-0.367l0,-9.937l-11.147,0l0,9.937l3.08,0.367l0,2.2l-11.22,-0l0,-2.2l2.787,-0.367l0,-21.927Z" style="fill-rule:nonzero;"/><path d="M93.662,51.664l-2.897,-0.476l0,-2.274l8.323,0l10.927,16.5l2.053,4.18l0,-17.93l-3.153,-0.476l0,-2.274l9.093,0l0,2.274l-2.823,0.476l0,24.494l-4.437,-0l-11.403,-17.344l-2.567,-4.84l0,19.617l3.704,0.367l-0,2.2l-9.717,-0l0,-2.2l2.897,-0.367l-0,-21.927Z" style="fill-rule:nonzero;"/><path d="M126.772,48.914l11,0l-0,2.274l-3.19,0.476l4.62,16.537l0.843,4.07l0.843,-4.07l3.924,-13.42l-1.027,-3.117l-2.42,-0.476l0,-2.274l11.477,0l-0,2.274l-3.52,0.476l4.583,16.537l0.99,4.4l0.77,-4.4l4.18,-16.537l-3.3,-0.476l-0,-2.274l8.837,0l-0,2.274l-2.347,0.476l-6.967,24.677l-4.84,0l-5.06,-17.123l-4.84,17.123l-4.766,0l-7.554,-24.64l-2.236,-0.513l-0,-2.274Z" style="fill-rule:nonzero;"/><path d="M169.048,51.664l-2.933,-0.476l-0,-2.274l19.543,0l0.477,6.16l-2.567,0l-1.21,-3.63l-7.92,-0.33l0,9.864l5.097,-0.11l0.587,-3.007l2.346,0l0,8.873l-2.346,0l-0.587,-3.153l-5.097,-0.11l0,10.34l8.874,-0.44l2.126,-4.693l2.75,0.77l-0.953,6.71l-21.083,-0l-0,-2.2l2.896,-0.367l0,-21.927Z" style="fill-rule:nonzero;"/><path d="M199.628,76.561c-1.32,0 -2.505,-0.11 -3.556,-0.33c-1.051,-0.22 -2.225,-0.513 -3.52,-0.88c-0.856,-0.244 -1.43,-0.379 -1.724,-0.403l0.33,-6.784l2.97,0l0.807,4.73c0.318,0.343 0.886,0.648 1.705,0.917c0.819,0.269 1.754,0.403 2.805,0.403c1.638,0 2.866,-0.36 3.685,-1.081c0.819,-0.721 1.228,-1.73 1.228,-3.025c0,-0.856 -0.244,-1.595 -0.733,-2.219c-0.489,-0.623 -1.161,-1.185 -2.017,-1.686c-0.855,-0.501 -2.029,-1.082 -3.52,-1.742c-2.029,-0.929 -3.709,-2.035 -5.041,-3.318c-1.333,-1.284 -1.999,-3.025 -1.999,-5.225c0,-1.369 0.355,-2.61 1.064,-3.722c0.709,-1.112 1.766,-1.992 3.171,-2.64c1.406,-0.648 3.123,-0.972 5.152,-0.972c1.198,0 2.255,0.086 3.172,0.257c0.916,0.171 1.912,0.403 2.988,0.697c0.636,0.171 1.112,0.281 1.43,0.33l-0.22,6.416l-2.933,0l-0.77,-4.51c-0.22,-0.22 -0.66,-0.433 -1.32,-0.641c-0.66,-0.208 -1.394,-0.312 -2.2,-0.312c-1.467,0 -2.573,0.336 -3.319,1.008c-0.745,0.673 -1.118,1.571 -1.118,2.695c-0,0.905 0.275,1.687 0.825,2.347c0.55,0.66 1.216,1.216 1.998,1.668c0.783,0.453 2.017,1.094 3.704,1.925c1.369,0.66 2.542,1.308 3.52,1.944c0.977,0.635 1.821,1.46 2.53,2.475c0.709,1.014 1.063,2.206 1.063,3.575c-0,1.344 -0.336,2.628 -1.008,3.85c-0.673,1.222 -1.773,2.236 -3.3,3.043c-1.528,0.807 -3.478,1.21 -5.849,1.21Z" style="fill-rule:nonzero;"/><path d="M215.212,51.664l-2.824,-0.476l0,-2.274l11.734,0l-0,2.274l-3.52,0.476l-0,21.89l7.846,-0.33l2.31,-6.856l2.97,0.403l-1.136,9.387l-20.277,-0l-0,-2.2l2.897,-0.367l-0,-21.927Z" style="fill-rule:nonzero;"/><path d="M238.568,51.664l-2.933,-0.476l-0,-2.274l19.543,0l0.477,6.16l-2.567,0l-1.21,-3.63l-7.92,-0.33l0,9.864l5.097,-0.11l0.587,-3.007l2.346,0l0,8.873l-2.346,0l-0.587,-3.153l-5.097,-0.11l0,10.34l8.874,-0.44l2.126,-4.693l2.75,0.77l-0.953,6.71l-21.083,-0l-0,-2.2l2.896,-0.367l0,-21.927Z" style="fill-rule:nonzero;"/><path d="M267.608,65.341l-7.846,-13.677l-2.09,-0.476l-0,-2.274l10.78,0l-0,2.274l-2.604,0.476l4.584,8.984l1.026,2.53l1.064,-2.53l4.216,-8.984l-2.86,-0.476l0,-2.274l8.947,0l-0,2.274l-2.273,0.44l-7.297,13.676l-0,8.287l3.997,0.367l-0,2.2l-13.53,-0l-0,-2.2l3.886,-0.367l0,-8.25Z" style="fill-rule:nonzero;"/><path d="M101.175,35.008c0.114,0.179 0.379,0.342 0.794,0.489c0.415,0.146 0.835,0.219 1.259,0.219c0.667,0 1.177,-0.142 1.527,-0.427c0.35,-0.285 0.525,-0.656 0.525,-1.112c0,-0.489 -0.228,-0.892 -0.684,-1.21c-0.456,-0.317 -1.206,-0.704 -2.248,-1.16l-0.929,-0.416c-1.059,-0.472 -1.853,-1.047 -2.382,-1.723c-0.53,-0.676 -0.795,-1.535 -0.795,-2.578c0,-0.749 0.22,-1.421 0.66,-2.016c0.44,-0.594 1.075,-1.063 1.906,-1.405c0.831,-0.342 1.809,-0.513 2.933,-0.513c0.782,-0 1.458,0.049 2.028,0.147c0.57,0.097 1.149,0.219 1.735,0.366c0.391,0.114 0.684,0.179 0.88,0.196l-0,3.323l-2.175,-0l-0.636,-1.882c-0.081,-0.146 -0.276,-0.281 -0.586,-0.403c-0.31,-0.122 -0.66,-0.183 -1.051,-0.183c-0.619,-0 -1.108,0.134 -1.466,0.403c-0.358,0.269 -0.538,0.631 -0.538,1.087c0,0.522 0.204,0.933 0.611,1.235c0.408,0.301 1.059,0.655 1.955,1.063l0.513,0.219c1.32,0.554 2.355,1.153 3.104,1.797c0.749,0.643 1.124,1.527 1.124,2.651c0,1.206 -0.481,2.195 -1.442,2.969c-0.961,0.774 -2.378,1.161 -4.252,1.161c-0.863,-0 -1.629,-0.069 -2.297,-0.208c-0.668,-0.138 -1.401,-0.322 -2.199,-0.55l-0.807,-0.22l0,-3.25l2.322,0l0.611,1.931Z" style="fill-rule:nonzero;"/><path d="M117.328,37.305c-2.232,-0 -3.886,-0.631 -4.961,-1.894c-1.075,-1.263 -1.613,-2.985 -1.613,-5.168c0,-1.483 0.277,-2.762 0.831,-3.837c0.554,-1.075 1.332,-1.894 2.334,-2.456c1.002,-0.562 2.179,-0.843 3.531,-0.843c1.71,0 3.018,0.432 3.922,1.295c0.904,0.864 1.372,2.085 1.405,3.666c0,1.042 -0.073,1.881 -0.22,2.517l-7.649,-0c0.082,1.384 0.42,2.439 1.015,3.164c0.594,0.725 1.429,1.088 2.504,1.088c0.603,-0 1.234,-0.102 1.894,-0.306c0.66,-0.203 1.194,-0.436 1.601,-0.696l0.684,1.49c-0.424,0.473 -1.144,0.921 -2.163,1.344c-1.018,0.424 -2.056,0.636 -3.115,0.636Zm1.564,-8.333l0.024,-1.026c0,-1.027 -0.138,-1.809 -0.415,-2.346c-0.277,-0.538 -0.75,-0.807 -1.418,-0.807c-0.684,0 -1.213,0.297 -1.588,0.892c-0.375,0.595 -0.578,1.69 -0.611,3.287l4.008,-0Z" style="fill-rule:nonzero;"/><path d="M124.585,35.423l1.491,-0.22l0,-9.188l-1.442,-0.44l0,-1.906l4.057,-0.538l0.073,0l0.684,0.514l0,0.586l-0.073,2.028l0.073,0c0.114,-0.374 0.375,-0.81 0.782,-1.307c0.408,-0.497 0.925,-0.929 1.552,-1.295c0.627,-0.367 1.307,-0.55 2.041,-0.55c0.423,0 0.749,0.057 0.977,0.171l0,4.252c-0.261,-0.195 -0.542,-0.35 -0.843,-0.464c-0.301,-0.114 -0.688,-0.171 -1.161,-0.171c-0.586,-0 -1.116,0.077 -1.588,0.232c-0.473,0.155 -0.847,0.33 -1.124,0.525l-0,7.551l2.688,0.245l-0,1.588l-8.187,0l0,-1.613Z" style="fill-rule:nonzero;"/><path d="M136.364,35.423l1.295,-0.22l0,-9.188l-1.442,-0.44l0,-1.906l4.448,-0.538l0.195,0.098l0.489,0.684l0,1.222c0.521,-0.537 1.287,-0.998 2.297,-1.38c1.01,-0.383 1.874,-0.575 2.591,-0.575c0.879,0 1.592,0.147 2.138,0.44c0.546,0.293 0.957,0.75 1.234,1.369c0.554,-0.522 1.25,-0.953 2.089,-1.296c0.839,-0.342 1.69,-0.513 2.554,-0.513c1.433,0 2.464,0.416 3.091,1.247c0.627,0.83 0.941,2.191 0.941,4.081l-0,6.695l1.466,0.22l0,1.613l-6.622,0l-0,-1.613l1.099,-0.22l0,-6.598c0,-1.173 -0.134,-1.987 -0.403,-2.443c-0.269,-0.457 -0.761,-0.685 -1.478,-0.685c-0.75,0 -1.532,0.318 -2.346,0.953c0.098,0.603 0.146,1.296 0.146,2.078l0,6.695l1.369,0.22l-0,1.613l-6.671,0l-0,-1.613l1.221,-0.22l0,-6.671c0,-1.157 -0.126,-1.955 -0.378,-2.395c-0.253,-0.44 -0.729,-0.66 -1.43,-0.66c-0.456,0 -0.908,0.102 -1.356,0.306c-0.448,0.203 -0.835,0.452 -1.161,0.745l0,8.675l1.32,0.22l-0,1.613l-6.696,0l0,-1.613Z" style="fill-rule:nonzero;"/><path d="M161.387,30.316c0,-1.564 0.31,-2.888 0.929,-3.971c0.619,-1.083 1.454,-1.894 2.505,-2.432c1.051,-0.537 2.203,-0.806 3.458,-0.806c2.052,0 3.661,0.615 4.826,1.845c1.165,1.23 1.747,2.945 1.747,5.144c0,1.613 -0.309,2.957 -0.928,4.032c-0.62,1.075 -1.45,1.874 -2.493,2.395c-1.043,0.521 -2.207,0.782 -3.494,0.782c-2.037,-0 -3.638,-0.615 -4.802,-1.845c-1.165,-1.23 -1.748,-2.945 -1.748,-5.144Zm6.794,5.278c0.782,0 1.364,-0.419 1.747,-1.258c0.383,-0.839 0.574,-2.155 0.574,-3.947c0,-1.906 -0.183,-3.311 -0.549,-4.215c-0.367,-0.904 -0.982,-1.356 -1.845,-1.356c-1.597,-0 -2.395,1.735 -2.395,5.205c-0,1.889 0.195,3.29 0.586,4.203c0.391,0.912 1.018,1.368 1.882,1.368Zm-5.083,-15.737c0.179,-0.88 0.582,-1.584 1.21,-2.114c0.627,-0.529 1.331,-0.794 2.113,-0.794c0.473,-0 0.88,0.09 1.222,0.269c0.342,0.179 0.725,0.44 1.149,0.782c0.309,0.244 0.562,0.423 0.757,0.537c0.196,0.114 0.408,0.171 0.636,0.171c0.374,0 0.651,-0.093 0.831,-0.281c0.179,-0.187 0.313,-0.383 0.403,-0.586c0.089,-0.204 0.15,-0.338 0.183,-0.403l1.564,0.904c-0.098,0.847 -0.428,1.547 -0.99,2.101c-0.562,0.554 -1.25,0.831 -2.065,0.831c-0.472,0 -0.879,-0.093 -1.221,-0.281c-0.343,-0.187 -0.717,-0.452 -1.125,-0.794c-0.325,-0.261 -0.594,-0.452 -0.806,-0.574c-0.212,-0.122 -0.44,-0.184 -0.684,-0.184c-0.342,0 -0.607,0.086 -0.794,0.257c-0.188,0.171 -0.351,0.363 -0.489,0.574c-0.139,0.212 -0.257,0.375 -0.354,0.489l-1.54,-0.904Z" style="fill-rule:nonzero;"/><path d="M183.307,37.305c-2.232,-0 -3.885,-0.631 -4.96,-1.894c-1.076,-1.263 -1.613,-2.985 -1.613,-5.168c-0,-1.483 0.277,-2.762 0.831,-3.837c0.554,-1.075 1.331,-1.894 2.333,-2.456c1.002,-0.562 2.179,-0.843 3.532,-0.843c1.71,0 3.017,0.432 3.922,1.295c0.904,0.864 1.372,2.085 1.405,3.666c-0,1.042 -0.074,1.881 -0.22,2.517l-7.649,-0c0.082,1.384 0.42,2.439 1.014,3.164c0.595,0.725 1.43,1.088 2.505,1.088c0.603,-0 1.234,-0.102 1.894,-0.306c0.66,-0.203 1.193,-0.436 1.6,-0.696l0.685,1.49c-0.424,0.473 -1.145,0.921 -2.163,1.344c-1.018,0.424 -2.057,0.636 -3.116,0.636Zm1.564,-8.333l0.025,-1.026c-0,-1.027 -0.139,-1.809 -0.416,-2.346c-0.277,-0.538 -0.749,-0.807 -1.417,-0.807c-0.684,0 -1.214,0.297 -1.588,0.892c-0.375,0.595 -0.579,1.69 -0.611,3.287l4.007,-0Z" style="fill-rule:nonzero;"/><path d="M193.595,35.008c0.114,0.179 0.379,0.342 0.794,0.489c0.416,0.146 0.835,0.219 1.259,0.219c0.668,0 1.177,-0.142 1.527,-0.427c0.351,-0.285 0.526,-0.656 0.526,-1.112c-0,-0.489 -0.228,-0.892 -0.685,-1.21c-0.456,-0.317 -1.205,-0.704 -2.248,-1.16l-0.928,-0.416c-1.059,-0.472 -1.853,-1.047 -2.383,-1.723c-0.529,-0.676 -0.794,-1.535 -0.794,-2.578c-0,-0.749 0.22,-1.421 0.66,-2.016c0.439,-0.594 1.075,-1.063 1.906,-1.405c0.831,-0.342 1.808,-0.513 2.932,-0.513c0.782,-0 1.458,0.049 2.028,0.147c0.571,0.097 1.149,0.219 1.735,0.366c0.391,0.114 0.685,0.179 0.88,0.196l0,3.323l-2.175,-0l-0.635,-1.882c-0.082,-0.146 -0.277,-0.281 -0.587,-0.403c-0.309,-0.122 -0.659,-0.183 -1.05,-0.183c-0.619,-0 -1.108,0.134 -1.467,0.403c-0.358,0.269 -0.537,0.631 -0.537,1.087c-0,0.522 0.203,0.933 0.611,1.235c0.407,0.301 1.059,0.655 1.955,1.063l0.513,0.219c1.319,0.554 2.354,1.153 3.103,1.797c0.75,0.643 1.124,1.527 1.124,2.651c0,1.206 -0.48,2.195 -1.441,2.969c-0.962,0.774 -2.379,1.161 -4.252,1.161c-0.864,-0 -1.629,-0.069 -2.297,-0.208c-0.668,-0.138 -1.401,-0.322 -2.2,-0.55l-0.806,-0.22l-0,-3.25l2.321,0l0.611,1.931Z" style="fill-rule:nonzero;"/></g></svg>